<?xml version="1.0" standalone="no"?>
<!DOCTYPE svg PUBLIC "-//W3C//DTD SVG 20010904//EN"
 "http://www.w3.org/TR/2001/REC-SVG-20010904/DTD/svg10.dtd">
<svg version="1.0" xmlns="http://www.w3.org/2000/svg"
 width="484.000000pt" height="515.000000pt" viewBox="0 0 484.000000 515.000000"
 preserveAspectRatio="xMidYMid meet">

<g transform="translate(0.000000,515.000000) scale(0.100000,-0.100000)"
fill="#000000" stroke="none">
<path d="M2345 4126 c-97 -45 -165 -151 -165 -256 0 -104 67 -207 166 -256 49
-24 63 -26 135 -22 73 4 85 8 136 44 35 24 69 58 88 88 26 43 30 60 33 135 3
79 1 91 -25 141 -32 61 -102 120 -163 139 -63 19 -149 14 -205 -13z"/>
<path d="M2376 2826 c-60 -22 -108 -67 -141 -131 -25 -48 -31 -73 -33 -140 -5
-97 8 -147 51 -211 51 -76 101 -106 189 -112 102 -6 159 19 232 102 91 104
206 149 326 128 89 -16 145 -46 220 -119 76 -72 119 -93 192 -93 96 1 174 56
220 155 32 70 32 190 0 260 -46 99 -124 154 -220 155 -74 0 -114 -20 -197 -99
-91 -86 -150 -111 -265 -111 -118 0 -175 25 -265 115 -40 40 -87 81 -104 90
-45 23 -156 29 -205 11z"/>
<path d="M2410 1471 c-134 -28 -224 -139 -224 -276 -1 -117 49 -200 149 -253
66 -35 176 -37 246 -6 178 82 219 325 77 461 -61 59 -169 91 -248 74z"/>
</g>
</svg>
